[img]http://img844.imageshack.us/img844/6198/thewatch.jpg[/img]

[b][size=200][color=black]PLOT[/color][/size][/b]

[code]Four men who form a neighborhood watch group
as a way to get out of their day-to-day family routines find
themselves defending the Earth from an alien invasion.[/code]

[b][size=200][color=black]IMDB[/color][/size][/b]

[code]http://www.imdb.com/title/tt1298649/[/code]

[b][size=200][color=black]MOVIE INFO[/color][/size][/b]

[code]The Watch [2012] DVDRip x264 AAC-V3nom

Format                                   : MPEG-4
Format profile                           : Base Media / Version 2
Codec ID                                 : mp42
File size                                : 350 MiB
Duration                                 : 1h 42mn
Overall bit rate mode                    : Variable
Overall bit rate                         : 479 Kbps
Encoded date                             : UTC 2012-11-11 16:27:31
Tagged date                              : UTC 2012-11-11 17:01:44

Video
ID                                       : 1
Format                                   : AVC
Format/Info                              : Advanced Video Codec
Format profile                           : Main@L3.0
Format settings, CABAC                   : Yes
Format settings, ReFrames                : 4 frames
Codec ID                                 : avc1
Codec ID/Info                            : Advanced Video Coding
Duration                                 : 1h 42mn
Bit rate mode                            : Variable
Bit rate                                 : 347 Kbps
Width                                    : 720 pixels
Height                                   : 304 pixels
Display aspect ratio                     : 2.35:1
Frame rate mode                          : Constant
Frame rate                               : 25.000 fps
Color space                              : YUV
Chroma subsampling                       : 4:2:0
Bit depth                                : 8 bits
Scan type                                : Progressive
Bits/(Pixel*Frame)                       : 0.063
Stream size                              : 254 MiB (72%)
Writing library                          : x264 

Audio
ID                                       : 2
Format                                   : AAC
Format/Info                              : Advanced Audio Codec
Format profile                           : LC
Codec ID                                 : 40
Duration                                 : 1h 42mn
Bit rate mode                            : Variable
Bit rate                                 : 128 Kbps
Maximum bit rate                         : 242 Kbps
Channel(s)                               : 2 channels
Channel positions                        : Front: L R
Sampling rate                            : 48.0 KHz
Compression mode                         : Lossy
Delay relative to video                  : 80ms
Stream size                              : 93.3 MiB (27%)
Encoded date                             : UTC 2012-11-11 16:27:31
Tagged date                              : UTC 2012-11-11 17:01:40[/code]

[b][size=200][color=black]SOURCE[/color][/size][/b]

[code]The Watch 2012 DVDRip XViD-PLAYNOW(Thanks)[/code]

[b][size=200][color=black]SCREENSHOTS[/color][/size][/b]

[img]http://img824.imageshack.us/img824/8596/thewatch2012dvdripx264a.jpg[/img]

[img]http://kastatic.com/i2/users/133df62bbf28e62494bb17fe11078f1a.gif[/img][img]http://kastatic.com/i2/users/133df62bbf28e62494bb17fe11078f1a.gif[/img]